<svg width="46" height="46" viewBox="0 0 46 46" fill="none" xmlns="http://www.w3.org/2000/svg">
<path fill-rule="evenodd" clip-rule="evenodd" d="M30.2725 1.16797C30.3327 1.16795 30.3924 1.18303 30.4453 1.21191C30.4981 1.24075 30.5427 1.28244 30.5752 1.33301C33.2476 5.49747 37.9317 7.08571 41.3906 7.68457C41.474 7.69903 41.55 7.74284 41.6045 7.80762C41.6589 7.87237 41.6894 7.95445 41.6895 8.03906V21.1289C41.6844 24.2907 40.9504 27.409 39.5449 30.2412C38.2466 32.8928 36.3631 35.4192 33.9463 37.749C31.3388 40.2613 26.9807 43.4192 23.1221 44.8105C23.0433 44.839 22.9567 44.839 22.8779 44.8105C19.0206 43.419 14.6637 40.2612 12.0566 37.749C9.63975 35.4187 7.75572 32.8923 6.45703 30.2412C5.05063 27.4091 4.31575 24.291 4.31055 21.1289V8.03906C4.31056 7.95444 4.34104 7.87238 4.39551 7.80762C4.45005 7.74284 4.52593 7.69901 4.60938 7.68457C8.06832 7.08571 12.7526 5.49747 15.4248 1.33301C15.4573 1.28245 15.5019 1.24074 15.5547 1.21191C15.6075 1.18304 15.6673 1.16796 15.7275 1.16797H30.2725ZM30.1025 16.4014C29.6025 16.4002 29.122 16.5984 28.7676 16.9512L20.835 24.8477L17.2197 21.2939C17.0422 21.1213 16.8317 20.9861 16.6016 20.8945C16.3717 20.8031 16.1263 20.7573 15.8789 20.7607C15.6314 20.7642 15.3865 20.8162 15.1592 20.9141C14.9318 21.0121 14.7254 21.1545 14.5527 21.332C14.3803 21.5095 14.2448 21.7193 14.1533 21.9492C14.0618 22.1793 14.016 22.4253 14.0195 22.6729C14.023 22.9204 14.0749 23.1652 14.1729 23.3926C14.2708 23.62 14.4133 23.8255 14.5908 23.998L19.5322 28.8418C19.8869 29.1865 20.3629 29.3782 20.8574 29.375C21.3522 29.3716 21.8267 29.173 22.1768 28.8232L31.4277 19.624C31.7821 19.2713 31.9821 18.792 31.9834 18.292C31.9846 17.7919 31.7873 17.3115 31.4346 16.957C31.0818 16.6026 30.6026 16.4026 30.1025 16.4014Z" fill="#C49A6C"/>
</svg>
