<svg width="50" height="50" viewBox="0 0 50 50" fill="none" xmlns="http://www.w3.org/2000/svg">
<path d="M25 3.125C21.2916 3.125 17.6665 4.22467 14.5831 6.28494C11.4996 8.34522 9.09641 11.2736 7.67727 14.6997C6.25812 18.1258 5.88681 21.8958 6.61028 25.5329C7.33376 29.1701 9.11952 32.511 11.7418 35.1332C14.364 37.7555 17.7049 39.5412 21.3421 40.2647C24.9792 40.9882 28.7492 40.6169 32.1753 39.1977C35.6014 37.7786 38.5298 35.3754 40.5901 32.2919C42.6503 29.2085 43.75 25.5834 43.75 21.875C43.75 16.9022 41.7746 12.1331 38.2583 8.61675C34.742 5.10044 29.9728 3.125 25 3.125ZM35.5313 20.0156C34.0642 21.0727 32.971 22.5685 32.4093 24.2872C31.8476 26.006 31.8465 27.8587 32.4063 29.5781C32.4793 29.8825 32.4592 30.2017 32.3486 30.4945C32.2381 30.7873 32.0422 31.0401 31.7863 31.2202C31.5304 31.4004 31.2263 31.4995 30.9133 31.5048C30.6004 31.5102 30.2931 31.4214 30.0313 31.25C28.572 30.1869 26.8132 29.6142 25.0078 29.6142C23.2024 29.6142 21.4436 30.1869 19.9844 31.25C19.7173 31.4453 19.3951 31.5507 19.0642 31.5511C18.7333 31.5515 18.4108 31.4469 18.1433 31.2523C17.8757 31.0576 17.6768 30.7831 17.5752 30.4682C17.4736 30.1533 17.4747 29.8143 17.5781 29.5C18.1379 27.7806 18.1368 25.9279 17.5751 24.2091C17.0134 22.4904 15.9202 20.9945 14.4531 19.9375C14.2155 19.7353 14.0438 19.4666 13.9602 19.166C13.8766 18.8654 13.8849 18.5466 13.9841 18.2507C14.0833 17.9549 14.2687 17.6955 14.5166 17.506C14.7645 17.3165 15.0635 17.2056 15.375 17.1875C17.1693 17.1759 18.9142 16.599 20.3617 15.5386C21.8092 14.4783 22.8855 12.9885 23.4375 11.2812C23.5403 10.9686 23.7391 10.6965 24.0056 10.5035C24.2722 10.3105 24.5928 10.2066 24.9219 10.2066C25.2509 10.2066 25.5716 10.3105 25.8381 10.5035C26.1047 10.6965 26.3035 10.9686 26.4063 11.2812C26.9665 13.014 28.0664 14.522 29.5452 15.5847C31.024 16.6475 32.8041 17.2091 34.625 17.1875C34.9557 17.1863 35.2782 17.2901 35.5462 17.4838C35.8141 17.6776 36.0137 17.9514 36.1162 18.2657C36.2186 18.5801 36.2187 18.9189 36.1164 19.2334C36.0141 19.5478 35.8147 19.8217 35.5469 20.0156H35.5313Z" fill="#C49A6C"/>
<path d="M7.1091 34.375L3.57785 37.9531C3.36861 38.1476 3.21669 38.3957 3.1386 38.6705C3.06052 38.9453 3.05926 39.2363 3.13497 39.5117C3.21068 39.7872 3.36046 40.0366 3.56802 40.2329C3.77558 40.4292 4.03298 40.5648 4.31223 40.625L9.9841 42.0469L12.781 46.2344C12.9118 46.4154 13.0799 46.5662 13.274 46.6767C13.4681 46.7872 13.6836 46.8548 13.906 46.875H14.0622C14.2679 46.8762 14.4717 46.8368 14.6621 46.759C14.8525 46.6813 15.0256 46.5667 15.1716 46.4219L18.7654 42.8281C14.0373 41.4065 9.92927 38.4274 7.1091 34.375Z" fill="#C49A6C"/>
<path d="M46.4219 37.9531L42.8906 34.375C40.0744 38.4245 35.9723 41.4034 31.25 42.8281L34.8437 46.4219C35.1348 46.7105 35.5276 46.8733 35.9375 46.875H36.0938C36.3228 46.8515 36.5438 46.7777 36.741 46.6589C36.9382 46.54 37.1066 46.3791 37.2344 46.1875L40.0313 42L45.6875 40.625C45.956 40.5574 46.2018 40.4197 46.3996 40.226C46.5974 40.0323 46.7402 39.7894 46.8133 39.5224C46.8864 39.2553 46.8873 38.9736 46.8158 38.7061C46.7442 38.4386 46.6029 38.1949 46.4063 38L46.4219 37.9531Z" fill="#C49A6C"/>
</svg>
