<svg width="50" height="49" viewBox="0 0 50 49" fill="none" xmlns="http://www.w3.org/2000/svg">
<path d="M40.9731 32.1999C47.4304 25.8716 47.4303 15.5746 40.9731 9.24624C34.5156 2.91792 24.0086 2.91792 17.5513 9.24624C12.073 14.615 11.2433 22.5996 15.06 28.8348C15.06 28.8348 15.3341 29.2855 14.9639 29.6481C12.8515 31.7181 6.51412 37.9289 6.51412 37.9289C4.83226 39.577 4.43189 41.8816 5.92334 43.3435L6.18014 43.5949C7.6716 45.0568 10.0234 44.6645 11.7051 43.0163C11.7051 43.0163 18.0291 36.8186 20.1371 34.7529C20.5251 34.3727 20.9849 34.6413 20.9849 34.6413C27.3472 38.3815 35.4948 37.5686 40.9731 32.1999ZM20.6089 29.2033C15.8375 24.5273 15.8376 16.9191 20.609 12.2431C25.3804 7.56723 33.144 7.5671 37.9152 12.2431C42.6866 16.9189 42.6866 24.5273 37.9152 29.2033C33.1438 33.879 25.3804 33.879 20.6089 29.2033Z" fill="#C49A6C"/>
<path d="M21.6661 19.7596C21.444 19.7596 21.2183 19.7168 21.0006 19.6268C20.1314 19.2662 19.7247 18.2833 20.0926 17.4313C22.4049 12.0761 28.7317 9.56301 34.196 11.8291C35.0653 12.1896 35.472 13.1726 35.1041 14.0246C34.7361 14.8766 33.7333 15.2749 32.8637 14.9145C29.1355 13.3684 24.8185 15.0831 23.2411 18.7368C22.9651 19.3758 22.3321 19.7596 21.6661 19.7596Z" fill="#C49A6C"/>
</svg>
