<svg width="50" height="50" viewBox="0 0 50 50" fill="none" xmlns="http://www.w3.org/2000/svg">
<path d="M28.0938 19.2188H34.4385L28.0938 12.874V19.2188Z" fill="#C49A6C"/>
<path d="M13.9531 21.5625H16.2969V23.9062H13.9531V21.5625Z" fill="#C49A6C"/>
<path d="M25.75 20.3906V12.1875H8.17188C7.52469 12.1875 7 12.7122 7 13.3594V43.8281C7 44.4753 7.52469 45 8.17188 45H33.9531C34.6003 45 35.125 44.4753 35.125 43.8281V21.5625H26.9219C26.2747 21.5625 25.75 21.0378 25.75 20.3906ZM11.6094 20.3906C11.6094 19.7434 12.1341 19.2188 12.7812 19.2188H17.4688C18.1159 19.2188 18.6406 19.7434 18.6406 20.3906V25.0781C18.6406 25.7253 18.1159 26.25 17.4688 26.25H12.7812C12.1341 26.25 11.6094 25.7253 11.6094 25.0781V20.3906ZM22.2344 40.3125H12.8594C12.2122 40.3125 11.6875 39.7878 11.6875 39.1406C11.6875 38.4934 12.2122 37.9688 12.8594 37.9688H22.2344C22.8816 37.9688 23.4062 38.4934 23.4062 39.1406C23.4062 39.7878 22.8816 40.3125 22.2344 40.3125ZM29.2656 35.625H12.8594C12.2122 35.625 11.6875 35.1003 11.6875 34.4531C11.6875 33.8059 12.2122 33.2812 12.8594 33.2812H29.2656C29.9128 33.2812 30.4375 33.8059 30.4375 34.4531C30.4375 35.1003 29.9128 35.625 29.2656 35.625ZM29.2656 30.9375H12.8594C12.2122 30.9375 11.6875 30.4128 11.6875 29.7656C11.6875 29.1184 12.2122 28.5938 12.8594 28.5938H29.2656C29.9128 28.5938 30.4375 29.1184 30.4375 29.7656C30.4375 30.4128 29.9128 30.9375 29.2656 30.9375ZM30.4375 25.0781C30.4375 25.7253 29.9128 26.25 29.2656 26.25H22.2344C21.5872 26.25 21.0625 25.7253 21.0625 25.0781C21.0625 24.4309 21.5872 23.9062 22.2344 23.9062H29.2656C29.9128 23.9062 30.4375 24.4309 30.4375 25.0781Z" fill="#C49A6C"/>
<path d="M33.9531 14.375C33.3059 14.375 32.7812 13.8503 32.7812 13.2031V5H15.2031C14.5559 5 14.0312 5.52469 14.0312 6.17188V9.84375H26.9219C27.8609 9.84375 28.7438 10.2095 29.4078 10.8734L36.4391 17.9047C37.103 18.5687 37.4688 19.4516 37.4688 20.3906V37.8125H40.9844C41.6316 37.8125 42.1562 37.2878 42.1562 36.6406V14.375H33.9531Z" fill="#C49A6C"/>
<path d="M35.125 5.68652V12.0313H41.4698L35.125 5.68652Z" fill="#C49A6C"/>
</svg>
