<svg width="50" height="50" viewBox="0 0 50 50" fill="none" xmlns="http://www.w3.org/2000/svg">
<path d="M33.2812 5H16.7188C10.2469 5 5 10.2469 5 16.7188V33.2812C5 39.7531 10.2469 45 16.7188 45H33.2812C39.7531 45 45 39.7531 45 33.2812V16.7188C45 10.2469 39.7531 5 33.2812 5ZM41.0938 33.2812C41.0938 37.5891 37.5891 41.0938 33.2812 41.0938H16.7188C12.4109 41.0938 8.90625 37.5891 8.90625 33.2812V16.7188C8.90625 12.4109 12.4109 8.90625 16.7188 8.90625H33.2812C37.5891 8.90625 41.0938 12.4109 41.0938 16.7188V33.2812ZM33.5578 18.768C34.2281 19.4383 34.2281 20.5242 33.5578 21.1945L23.5203 31.232C22.85 31.9023 21.7641 31.9023 21.0938 31.232L16.4422 26.5805C15.7719 25.9102 15.7719 24.8242 16.4422 24.1539C17.1125 23.4836 18.1984 23.4836 18.8688 24.1539L22.307 27.5922L31.1313 18.768C31.8016 18.0977 32.8875 18.0977 33.5578 18.768Z" fill="#C49A6C"/>
</svg>
